<?xml version="1.0" standalone="no"?>
<!DOCTYPE svg PUBLIC "-//W3C//DTD SVG 20010904//EN"
 "http://www.w3.org/TR/2001/REC-SVG-20010904/DTD/svg10.dtd">
<svg version="1.0" xmlns="http://www.w3.org/2000/svg"
 width="194.000000pt" height="194.000000pt" viewBox="0 0 194.000000 194.000000"
 preserveAspectRatio="xMidYMid meet">
<metadata>
Created by potrace 1.11, written by Peter Selinger 2001-2013
</metadata>
<g transform="translate(0.000000,194.000000) scale(0.100000,-0.100000)"
fill="#000000" stroke="none">
<path d="M1207 1870 c-43 -32 -65 -55 -60 -63 4 -7 119 -162 256 -344 l249
-333 41 30 c23 17 54 40 69 53 l27 22 -134 180 c-74 99 -138 185 -142 190 -5
6 -22 28 -38 50 -17 22 -34 44 -38 50 -4 5 -26 35 -48 65 -45 62 -77 104 -99
132 -15 19 -18 17 -83 -32z"/>
<path d="M909 1588 c-25 -29 -48 -58 -52 -64 -4 -7 37 -48 101 -100 59 -49
109 -91 112 -94 3 -3 39 -32 80 -65 41 -33 81 -66 88 -73 8 -7 62 -52 120
-100 59 -48 116 -95 127 -105 10 -9 22 -16 26 -15 9 4 109 122 108 128 0 3
-71 62 -157 132 -86 70 -175 143 -197 162 -117 100 -297 246 -304 246 -4 0
-27 -24 -52 -52z"/>
<path d="M668 1212 l-36 -77 46 -23 c26 -12 115 -54 197 -91 177 -81 216 -99
399 -184 l139 -65 37 77 37 76 -86 41 c-47 23 -151 72 -231 109 -194 89 -227
105 -353 164 -60 28 -109 51 -110 51 -1 0 -18 -35 -39 -78z"/>
<path d="M555 888 c-9 -29 -34 -153 -31 -155 2 -2 14 -6 27 -8 13 -3 47 -9 75
-15 28 -6 64 -13 80 -16 16 -3 45 -9 64 -14 19 -5 50 -12 68 -15 18 -3 138
-28 268 -55 129 -28 241 -50 248 -50 11 0 41 115 41 154 0 10 -34 21 -90 31
-42 7 -74 13 -93 19 -9 3 -30 8 -47 10 -16 3 -93 19 -170 35 -77 16 -151 32
-165 35 -48 9 -225 46 -248 51 -13 3 -24 0 -27 -7z"/>
<path d="M160 340 l0 -340 775 0 775 0 0 340 0 340 -85 0 -85 0 0 -255 0 -255
-605 0 -605 0 0 255 0 255 -85 0 -85 0 0 -340z"/>
<path d="M500 425 l0 -85 435 0 435 0 0 85 0 85 -435 0 -435 0 0 -85z"/>
</g>
</svg>
