<svg width="84" height="84" xmlns="http://www.w3.org/2000/svg"><g fill="none"><circle fill="#F4F8FB" cx="42" cy="42" r="42"/><path d="M4 24.5c0 .8.7 1.5 1.5 1.5S7 25.3 7 24.5 6.3 23 5.5 23 4 23.7 4 24.5" fill="#FFF"/><path d="M4 24.5c0 .8.7 1.5 1.5 1.5S7 25.3 7 24.5 6.3 23 5.5 23 4 23.7 4 24.5zm-1 0C3 23 4 22 5.5 22S8 23 8 24.5 7 27 5.5 27 3 26 3 24.5z" fill="#F38021"/><path d="M2 14c0 .6.4 1 1 1s1-.4 1-1-.4-1-1-1-1 .4-1 1" fill="#F48024"/><path d="M17 30v-6h10v6H17zm9-1v-4h-8v4h8zm31 1v-6h10v6H57zm9-1v-4h-8v4h8z" fill="#126CFA"/><path fill="#FFC522" d="M12 81h22v-6H12"/><path fill="#F38021" d="M11 79v-4h-1v5h23v-5h-1v4"/><path fill="#FFC522" d="M53 81h22v-6H53"/><path fill="#F38021" d="M52 79v-4h-1v5h23v-5h-1v4"/><path d="M44 49h1v5h-6v-5h1v4h4v-4zm0-20v4h1v-5h-6v5h1v-4h4zm-9 20V33h14v16H35zm13-1V34H36v14h12z" fill="#126CFA"/><path d="M39 45v-8h6v8h-6zm1-1h4v-6h-4v6z" fill="#126CFA"/><path fill="#FFCC01" d="M9 2h1v5H9z"/><path d="M7 4h5v1H7V4zm73 65v-2h-1v2h-2v1h2v2h1v-2h2v-1h-2z" fill="#FFCC01"/><circle fill="#F48024" cx="82" cy="79" r="2"/><path d="M15 14h14v10H15V14zm3 11h8v4h-8v-4zm40 0h8v4h-8v-4zm-3-11h14v10H55V14zm-6 16h23l3 26H49V30zm-37 0h23v26H9l3-26zm24 4h12v14H36V34zm4-5h4v4h-4v-4zm0 20h4v4h-4v-4zm-26 8h15l3 18H11l3-18zm56 0H55l-3 18h21l-3-18z" fill="#FFF"/><path d="M35 30H12L9 56h26V30zM8 57l3-28h25v28H8zm64-27H49v26h26l-3-26zM48 57V29h25l3 28H48z" fill="#126CFA"/><path d="M30 56l3 20H10l3-20h17zm-16 1l-3 18h21l-3-18H14zm40-1l-3 20h23l-3-20H54zm16 1l3 18H52l3-18h15z" fill="#126CFA"/><path d="M13 23h15V12H13m40 11h15V12H53" fill="#CCEAFF"/><path d="M14 25V13h16v12H14zm1-1h14V14H15v10zm39 1V13h16v12H54zm15-1V14H55v10h14z" fill="#126CFA"/><path d="M55 18h14v-1H55m-40 1h14v-1H15" fill="#126CFA"/></g></svg>